<?xml version="1.0" standalone="no"?>
<!DOCTYPE svg PUBLIC "-//W3C//DTD SVG 20010904//EN"
 "http://www.w3.org/TR/2001/REC-SVG-20010904/DTD/svg10.dtd">
<svg version="1.0" xmlns="http://www.w3.org/2000/svg"
 width="227.000000pt" height="227.000000pt" viewBox="0 0 227.000000 227.000000"
 preserveAspectRatio="xMidYMid meet">

<g transform="translate(0.000000,227.000000) scale(0.100000,-0.100000)"
fill="#000000" stroke="none">
<path d="M681 1804 c-51 -36 -51 -36 -51 -714 l0 -630 -34 0 c-51 0 -86 -16
-86 -40 0 -20 5 -20 490 -20 320 0 490 3 490 10 0 26 -41 50 -85 50 l-45 0 2
357 3 358 49 8 c38 6 54 4 73 -9 31 -20 28 -49 -18 -167 -28 -69 -33 -98 -37
-188 -4 -91 -1 -113 16 -152 29 -66 70 -89 148 -85 123 7 169 81 167 268 -1
101 -16 176 -63 323 -22 67 -27 93 -18 98 7 5 15 58 21 136 l10 129 -31 60
c-35 69 -52 87 -76 78 -12 -5 -16 -16 -14 -37 3 -26 -1 -32 -29 -41 -17 -6
-35 -14 -39 -18 -9 -10 -32 -158 -25 -162 3 -2 34 -11 69 -21 l62 -19 0 -43
c0 -24 4 -51 10 -61 20 -36 80 -243 91 -314 15 -96 7 -226 -17 -274 -36 -72
-117 -102 -186 -70 -58 28 -73 65 -73 186 1 95 4 113 33 185 18 44 36 103 39
131 8 70 -12 90 -101 99 l-66 7 0 260 c0 269 -2 287 -44 320 -19 16 -52 18
-316 18 -257 0 -299 -2 -319 -16z m573 -96 c13 -18 16 -53 16 -178 0 -125 -3
-160 -16 -178 -15 -22 -18 -22 -252 -22 -181 1 -241 4 -254 14 -16 12 -18 33
-18 180 0 96 4 176 10 187 10 18 24 19 255 19 241 0 244 0 259 -22z m374 -150
c17 -28 19 -43 13 -98 -3 -36 -10 -65 -16 -65 -5 0 -34 7 -63 15 -48 13 -52
16 -48 39 3 15 7 47 11 73 5 39 10 48 33 57 42 15 49 13 70 -21z"/>
<path d="M804 1556 c-10 -26 1 -51 21 -51 23 0 32 30 15 50 -16 19 -29 19 -36
1z m26 -28 c0 -18 -2 -20 -9 -8 -6 8 -7 18 -5 22 9 14 14 9 14 -14z"/>
<path d="M928 1565 c-8 -8 3 -65 13 -65 5 0 9 16 9 35 0 32 -8 43 -22 30z"/>
<path d="M1034 1556 c-10 -26 1 -51 21 -51 23 0 32 30 15 50 -16 19 -29 19
-36 1z m26 -27 c0 -11 -4 -17 -10 -14 -5 3 -10 13 -10 21 0 8 5 14 10 14 6 0
10 -9 10 -21z"/>
<path d="M1151 1556 c-17 -21 -4 -56 20 -56 17 0 20 6 17 32 -3 36 -19 46 -37
24z m29 -26 c0 -11 -4 -20 -10 -20 -5 0 -10 9 -10 20 0 11 5 20 10 20 6 0 10
-9 10 -20z"/>
</g>
</svg>
